HIERARCHY
ROOT Pelvis
{
	OFFSET 0.000000 0.941512 0.000000
	CHANNELS 6 Xposition Yposition Zposition Zrotation Yrotation Xrotation 
	JOINT Pelvis_L_Hip
	{
		OFFSET 0.000000 0.000000 0.000000
		CHANNELS 3 Zrotation Yrotation Xrotation
		JOINT L_Hip
		{
			OFFSET 0.062321 -0.080322 -0.016990
			CHANNELS 3 Zrotation Yrotation Xrotation
			JOINT L_Knee
			{
				OFFSET 0.093051 -0.381305 -0.029784
				CHANNELS 3 Zrotation Yrotation Xrotation
				JOINT L_Ankle
				{
					OFFSET -0.010371 -0.431000 -0.033614
					CHANNELS 3 Zrotation Yrotation Xrotation
					End Site #name: L_Foot
					{
						OFFSET 0.069299 -0.038670 0.119418
					}
				}
			}
		}
	}
	JOINT Pelvis_R_Hip
	{
		OFFSET 0.000000 0.000000 0.000000
		CHANNELS 3 Zrotation Yrotation Xrotation
		JOINT R_Hip
		{
			OFFSET -0.055334 -0.094904 -0.002373
			CHANNELS 3 Zrotation Yrotation Xrotation
			JOINT R_Knee
			{
				OFFSET -0.064207 -0.384370 -0.019592
				CHANNELS 3 Zrotation Yrotation Xrotation
				JOINT R_Ankle
				{
					OFFSET 0.025418 -0.419734 -0.065953
					CHANNELS 3 Zrotation Yrotation Xrotation
					End Site #name: R_Foot
					{
						OFFSET -0.057233 -0.039888 0.132134
					}
				}
			}
		}
	}
	JOINT Pelvis_Spine1
	{
		OFFSET 0.000000 0.000000 0.000000
		CHANNELS 3 Zrotation Yrotation Xrotation
		JOINT Spine1
		{
			OFFSET -0.005562 0.124093 -0.043360
			CHANNELS 3 Zrotation Yrotation Xrotation
			JOINT Spine2
			{
				OFFSET 0.012244 0.139499 0.029894
				CHANNELS 3 Zrotation Yrotation Xrotation
				JOINT Spine3
				{
					OFFSET -0.002556 0.056561 0.009225
					CHANNELS 3 Zrotation Yrotation Xrotation
					JOINT Spine3_Neck
					{
						OFFSET 0.000000 0.000000 0.000000
						CHANNELS 3 Zrotation Yrotation Xrotation
						JOINT Neck
						{
							OFFSET -0.005205 0.217920 -0.024551
							CHANNELS 3 Zrotation Yrotation Xrotation
							End Site #name: Head
							{
								OFFSET 0.002365 0.091850 0.046637
							}
						}
					}
					JOINT Spine3_L_Collar
					{
						OFFSET 0.000000 0.000000 0.000000
						CHANNELS 3 Zrotation Yrotation Xrotation
						JOINT L_Collar
						{
							OFFSET 0.072225 0.116603 -0.009480
							CHANNELS 3 Zrotation Yrotation Xrotation
							JOINT L_Shoulder
							{
								OFFSET 0.115937 -0.058643 -0.021018
								CHANNELS 3 Zrotation Yrotation Xrotation
								JOINT L_Elbow
								{
									OFFSET 0.021994 -0.254722 -0.024492
									CHANNELS 3 Zrotation Yrotation Xrotation
									End Site #name: L_Wrist
									{
										OFFSET 0.048810 -0.240214 0.103329
									}
								}
							}
						}
					}
					JOINT Spine3_R_Collar
					{
						OFFSET 0.000000 0.000000 0.000000
						CHANNELS 3 Zrotation Yrotation Xrotation
						JOINT R_Collar
						{
							OFFSET -0.073372 0.120704 -0.024611
							CHANNELS 3 Zrotation Yrotation Xrotation
							JOINT R_Shoulder
							{
								OFFSET -0.108089 -0.054969 -0.020504
								CHANNELS 3 Zrotation Yrotation Xrotation
								JOINT R_Elbow
								{
									OFFSET -0.033684 -0.260739 0.009889
									CHANNELS 3 Zrotation Yrotation Xrotation
									End Site #name: R_Wrist
									{
										OFFSET -0.067980 -0.232763 0.118463
									}
								}
							}
						}
					}
				}
			}
		}
	}
}
MOTION
Frames: 14
Frame Time: 0.041667
0.000000 0.939717 0.000000 -0.398502 -2.695065 11.868024 0.000000 0.000000 0.000000 -0.995468 -5.334412 -22.248545 0.954109 -0.370838 9.834231 -1.932182 -5.108420 0.554868 0.000000 0.000000 0.000000 1.604835 5.440843 -29.481324 -3.199845 1.581345 11.490403 1.232182 -4.065953 5.916919 0.000000 0.000000 0.000000 7.974794 -8.189049 37.119337 -1.842991 0.394000 1.552276 5.822710 6.665454 4.203293 0.000000 0.000000 0.000000 -5.108090 2.680087 3.716756 0.000000 0.000000 0.000000 18.765042 -5.317771 0.332402 -21.351584 0.423612 -6.311882 1.674623 -5.639365 -29.794794 0.000000 0.000000 0.000000 -39.947438 28.392460 -23.530001 -4.008045 1.687017 -19.484447 -30.387122 -15.642749 -21.172589 
0.001026 0.939552 -0.000519 -0.358171 -2.902525 11.947203 0.000000 0.000000 0.000000 -1.055591 -5.347970 -22.298637 0.886613 -0.354603 9.708206 -1.911798 -4.932181 0.615083 0.000000 0.000000 0.000000 1.513177 5.463437 -29.637540 -3.268247 1.598190 11.452929 1.321151 -3.944007 6.007725 0.000000 0.000000 0.000000 7.993432 -8.207204 37.352319 -2.089345 0.424497 1.351658 5.849197 6.739575 4.176933 0.000000 0.000000 0.000000 -5.114737 2.684092 3.739143 0.000000 0.000000 0.000000 18.871256 -5.348444 0.325629 -21.353855 0.429634 -6.288852 1.666812 -5.628254 -29.728501 0.000000 0.000000 0.000000 -40.591049 29.062608 -24.521787 -3.888158 1.805774 -20.442697 -28.285619 -14.189816 -22.843273 
0.001761 0.939414 -0.000674 -0.355020 -3.079005 12.033345 0.000000 0.000000 0.000000 -1.079372 -5.348748 -22.311271 0.843046 -0.342701 9.579432 -1.885950 -4.786868 0.649873 0.000000 0.000000 0.000000 1.485855 5.489278 -29.751898 -3.344397 1.616792 11.418210 1.399127 -3.827586 6.078681 0.000000 0.000000 0.000000 7.862599 -8.134130 37.566221 -2.147732 0.423445 1.181263 5.933490 6.734097 4.150403 0.000000 0.000000 0.000000 -5.245994 2.759825 3.857303 0.000000 0.000000 0.000000 19.074758 -5.426220 0.293313 -21.456137 0.439482 -6.277346 1.798139 -5.525527 -29.731003 0.000000 0.000000 0.000000 -40.645866 29.397290 -24.927156 -2.729676 2.038915 -20.258055 -26.050091 -12.539235 -26.018113 
0.002390 0.939284 -0.000582 -0.369308 -3.132916 12.124947 0.000000 0.000000 0.000000 -1.082349 -5.354433 -22.343211 0.813487 -0.335451 9.504765 -1.871914 -4.737814 0.652685 0.000000 0.000000 0.000000 1.476587 5.513924 -29.871400 -3.400003 1.637421 11.471509 1.418858 -3.806159 6.102893 0.000000 0.000000 0.000000 7.606047 -7.996059 37.732527 -2.028971 0.390428 0.984284 6.071171 6.677452 4.217886 0.000000 0.000000 0.000000 -5.396859 2.849909 4.092165 0.000000 0.000000 0.000000 19.303071 -5.519518 0.255108 -21.586968 0.431141 -6.345547 1.991551 -5.381384 -29.779913 0.000000 0.000000 0.000000 -40.251850 29.246410 -24.611008 -1.078685 2.212057 -18.764398 -23.831248 -10.668079 -30.219895 
0.003011 0.939007 -0.000529 -0.417887 -3.009151 12.242816 0.000000 0.000000 0.000000 -1.032725 -5.378258 -22.462914 0.794137 -0.332536 9.489204 -1.894622 -4.804987 0.654469 0.000000 0.000000 0.000000 1.495107 5.549755 -30.062220 -3.435235 1.663061 11.650500 1.343988 -3.949449 6.059244 0.000000 0.000000 0.000000 7.348576 -7.864266 37.750684 -1.784343 0.348401 0.979952 6.126695 6.528762 4.308101 0.000000 0.000000 0.000000 -5.519907 2.924872 4.266260 0.000000 0.000000 0.000000 19.463247 -5.551690 0.249287 -21.598356 0.409523 -6.447386 2.182722 -5.281781 -29.997371 0.000000 0.000000 0.000000 -39.438018 28.551378 -23.522379 0.364541 2.213346 -16.607121 -22.056226 -8.892795 -34.463848 
0.003727 0.938633 -0.000321 -0.459378 -2.811817 12.298081 0.000000 0.000000 0.000000 -1.018815 -5.391402 -22.509727 0.793795 -0.333129 9.462274 -1.940047 -4.948064 0.653804 0.000000 0.000000 0.000000 1.491966 5.566524 -30.198701 -3.439350 1.686581 11.898412 1.226073 -4.145052 5.964158 0.000000 0.000000 0.000000 7.123115 -7.758040 37.730866 -1.559256 0.322743 1.195907 6.049210 6.321340 4.339494 0.000000 0.000000 0.000000 -5.636690 2.996623 4.429134 0.000000 0.000000 0.000000 19.608151 -5.604717 0.222571 -21.511499 0.388749 -6.531809 2.410396 -5.169769 -30.295150 0.000000 0.000000 0.000000 -38.568017 27.621339 -22.165127 1.564927 2.108534 -14.378004 -21.573994 -8.216222 -37.587802 
0.004603 0.938359 0.000119 -0.480962 -2.651131 12.289671 0.000000 0.000000 0.000000 -1.061134 -5.392092 -22.478552 0.801084 -0.335346 9.460088 -1.952972 -5.080554 0.604325 0.000000 0.000000 0.000000 1.451022 5.560014 -30.248356 -3.410825 1.700361 12.132838 1.124707 -4.289526 5.860759 0.000000 0.000000 0.000000 6.861547 -7.647842 37.864116 -1.411807 0.306506 1.354139 5.938444 6.192796 4.365510 0.000000 0.000000 0.000000 -5.829483 3.109287 4.574679 0.000000 0.000000 0.000000 19.645995 -5.644832 0.196054 -21.345486 0.355770 -6.628541 2.611326 -5.039874 -30.432995 0.000000 0.000000 0.000000 -37.708048 26.827532 -21.026802 2.595284 1.950493 -12.257070 -22.661227 -9.185647 -39.130626 
0.005689 0.938183 0.000314 -0.558759 -2.478503 12.295907 0.000000 0.000000 0.000000 -1.084744 -5.417746 -22.561876 0.887077 -0.354704 9.606706 -1.936560 -5.212333 0.506237 0.000000 0.000000 0.000000 1.428938 5.553535 -30.279312 -3.332501 1.689193 12.258718 1.044982 -4.436042 5.809989 0.000000 0.000000 0.000000 6.573047 -7.548988 38.146174 -1.252586 0.286500 1.489101 5.898752 6.200891 4.382234 0.000000 0.000000 0.000000 -6.127166 3.269505 4.418344 0.000000 0.000000 0.000000 19.417973 -5.587781 0.212823 -21.079559 0.296109 -6.797352 2.725983 -4.930478 -30.348225 0.000000 0.000000 0.000000 -36.707280 26.355374 -20.288099 2.782667 1.756952 -10.838744 -24.706339 -11.216973 -38.937418 
0.006956 0.938012 -0.000058 -0.686779 -2.270652 12.352583 0.000000 0.000000 0.000000 -1.060674 -5.479090 -22.817501 1.016507 -0.385564 9.881159 -1.931073 -5.356018 0.420483 0.000000 0.000000 0.000000 1.425516 5.554948 -30.338155 -3.242713 1.661899 12.258778 0.989365 -4.607235 5.839666 0.000000 0.000000 0.000000 6.307424 -7.482687 38.494239 -1.105941 0.269109 1.638137 5.953079 6.310249 4.383000 0.000000 0.000000 0.000000 -6.376804 3.392674 4.045339 0.000000 0.000000 0.000000 19.119813 -5.507102 0.246101 -20.832629 0.233484 -6.956805 2.726661 -4.906938 -30.254871 0.000000 0.000000 0.000000 -36.113602 26.266972 -20.107290 2.008926 1.651474 -10.816195 -26.885108 -13.339202 -37.349198 
0.008243 0.937896 -0.000831 -0.807647 -2.100941 12.446504 0.000000 0.000000 0.000000 -0.982814 -5.544436 -23.120991 1.057312 -0.399823 10.097314 -1.959026 -5.461534 0.411336 0.000000 0.000000 0.000000 1.436870 5.567511 -30.429481 -3.219362 1.644697 12.174376 0.971811 -4.751559 5.934890 0.000000 0.000000 0.000000 6.128508 -7.473270 38.895606 -1.124313 0.274592 1.677429 6.017578 6.495068 4.349301 0.000000 0.000000 0.000000 -6.426337 3.407497 3.831373 0.000000 0.000000 0.000000 19.015529 -5.487357 0.272398 -20.706178 0.183307 -7.102340 2.602159 -4.967571 -30.073217 0.000000 0.000000 0.000000 -36.518192 26.596509 -20.623381 1.115364 1.741105 -12.289981 -28.834387 -15.070313 -34.878840 
0.009604 0.937892 -0.001651 -0.871569 -1.994276 12.554681 0.000000 0.000000 0.000000 -0.933092 -5.596018 -23.358437 1.026373 -0.396708 10.147144 -2.008186 -5.523139 0.460702 0.000000 0.000000 0.000000 1.391649 5.573264 -30.532554 -3.221180 1.631497 12.050217 0.985330 -4.854052 6.064689 0.000000 0.000000 0.000000 5.989235 -7.482602 39.332610 -1.260642 0.292190 1.559680 6.115707 6.762363 4.329131 0.000000 0.000000 0.000000 -6.315968 3.338104 3.777148 0.000000 0.000000 0.000000 19.001113 -5.449746 0.334331 -20.733054 0.124454 -7.295776 2.471489 -5.021870 -29.872419 0.000000 0.000000 0.000000 -37.547779 27.309797 -21.749398 0.113930 1.909768 -14.664250 -30.489293 -16.351644 -31.907866 
0.011080 0.938000 -0.002304 -0.856340 -1.895495 12.626411 0.000000 0.000000 0.000000 -1.018397 -5.639031 -23.488536 1.034822 -0.396703 10.070859 -2.079582 -5.600664 0.538680 0.000000 0.000000 0.000000 1.249491 5.554916 -30.617340 -3.214876 1.619812 11.964242 0.998072 -4.942542 6.181235 0.000000 0.000000 0.000000 5.887333 -7.512175 39.764969 -1.405085 0.307401 1.382246 6.258584 7.024439 4.349015 0.000000 0.000000 0.000000 -6.152154 3.239837 3.695693 0.000000 0.000000 0.000000 18.988879 -5.343219 0.447718 -20.916628 0.058945 -7.541885 2.362613 -5.090312 -29.782512 0.000000 0.000000 0.000000 -38.724298 28.105622 -23.052330 -1.340302 2.011410 -17.531096 -31.184716 -16.734594 -29.197508 
0.012359 0.938170 -0.002593 -0.811231 -1.832102 12.621965 0.000000 0.000000 0.000000 -1.163169 -5.655583 -23.476620 1.060617 -0.396969 9.912069 -2.159783 -5.679807 0.630471 0.000000 0.000000 0.000000 1.122343 5.531948 -30.654886 -3.256710 1.629401 11.958465 0.999992 -5.000123 6.242115 0.000000 0.000000 0.000000 5.890744 -7.592632 40.140714 -1.628069 0.337976 1.240725 6.363012 7.214135 4.353149 0.000000 0.000000 0.000000 -5.939460 3.117670 3.644489 0.000000 0.000000 0.000000 19.039703 -5.265469 0.541188 -21.102850 0.014366 -7.716171 2.298046 -5.166057 -29.889451 0.000000 0.000000 0.000000 -40.043841 28.859169 -24.375314 -2.643935 2.073554 -20.406105 -30.706748 -16.212293 -27.213396 
0.013292 0.938328 -0.002421 -0.773392 -1.857981 12.619536 0.000000 0.000000 0.000000 -1.256104 -5.650907 -23.412467 1.027641 -0.386171 9.738135 -2.200280 -5.684707 0.695403 0.000000 0.000000 0.000000 1.049139 5.518176 -30.657258 -3.331010 1.646151 11.925055 1.027378 -4.987044 6.295042 0.000000 0.000000 0.000000 5.932357 -7.661209 40.408720 -1.892848 0.374125 1.082983 6.416845 7.344145 4.347224 0.000000 0.000000 0.000000 -5.760876 3.017619 3.657053 0.000000 0.000000 0.000000 19.117386 -5.249360 0.581848 -21.181641 -0.004417 -7.785736 2.256599 -5.241793 -30.067164 0.000000 0.000000 0.000000 -41.185432 29.571633 -25.622524 -3.151970 2.199256 -22.652940 -29.557738 -15.260796 -26.292122 
